# xmcd
#
# Track frame offsets:
#	150
#	17092
#	34278
#	52580
#	73766
#	88807
#	106517
#	124492
#	142082
#	160846
#
# Disc length: 2375 seconds
#
# Revision: 1
# Processed by: cddbd v1.5.1PL2 Copyright (c) Steve Scherf et al.
# Submitted via: audiograbber 1.83.01
#
DISCID=8409450a
DTITLE=ต่าย อรทัย - ดอกหญ้าในป่าปูน
DYEAR=2003
DGENRE=ลูกทุ่ง
TTITLE0=ดอกหญ้าในป่าปูน
TTITLE1=โทรหาแหน่เด๊อ
TTITLE2=บ่ฮักบ่ต้องสงสาร
TTITLE3=ขอสิทธิ์แค่ร้องไห้
TTITLE4=แก้มแดงแรงใจ
TTITLE5=คิดถึงพ่อ คิดถึงแม่ คิดถึงบ้าน
TTITLE6=เอิ้นสั่งหลังสงกรานต์
TTITLE7=สัญญาหน้าฮ้าน
TTITLE8=จีบแล้วขอ
TTITLE9=รอพี่ที่นครพนม
EXTD=
EXTT0=
EXTT1=
EXTT2=
EXTT3=
EXTT4=
EXTT5=
EXTT6=
EXTT7=
EXTT8=
EXTT9=
PLAYORDER=
